<?xml version="1.0" encoding="UTF-8"?>
<!DOCTYPE svg PUBLIC "-//W3C//DTD SVG 1.1//EN" "http://www.w3.org/Graphics/SVG/1.1/DTD/svg11.dtd">
<svg xmlns="http://www.w3.org/2000/svg" version="1.1" width="512px" height="512px" style="shape-rendering:geometricPrecision; text-rendering:geometricPrecision; image-rendering:optimizeQuality; fill-rule:evenodd; clip-rule:evenodd" xmlns:xlink="http://www.w3.org/1999/xlink">
<g><path style="opacity:0.98" fill="#ef524f" d="M 193.5,6.5 C 203.788,4.65048 212.288,7.65048 219,15.5C 228.739,9.09058 238.572,8.92392 248.5,15C 256.443,25.1585 256.277,35.3252 248,45.5C 237.971,56.4263 225.804,63.593 211.5,67C 203.349,60.8481 195.849,54.0147 189,46.5C 184.362,40.0559 181.529,32.8893 180.5,25C 181.295,16.2118 185.628,10.0451 193.5,6.5 Z"/></g>
<g><path style="opacity:0.974" fill="#ef5350" d="M 146.5,48.5 C 159.133,47.7972 165.8,53.7972 166.5,66.5C 164.887,79.2231 159.887,90.3897 151.5,100C 136.651,100.835 123.484,96.6683 112,87.5C 105.618,76.6641 107.785,68.1641 118.5,62C 123.51,60.5268 128.51,60.0268 133.5,60.5C 135.974,54.3546 140.307,50.3546 146.5,48.5 Z"/></g>
<g><path style="opacity:0.997" fill="#59cafe" d="M 461.5,187.5 C 472.606,232.759 474.44,278.425 467,324.5C 464.477,336.07 461.143,347.404 457,358.5C 452.415,368.886 447.248,378.886 441.5,388.5C 429.419,404.375 414.419,416.708 396.5,425.5C 390.871,426.929 385.537,428.929 380.5,431.5C 362.684,436.29 344.684,437.956 326.5,436.5C 326.5,435.833 326.167,435.5 325.5,435.5C 319.07,434.643 312.737,433.309 306.5,431.5C 300.468,430.269 294.801,428.269 289.5,425.5C 285.3,402.721 276.8,381.387 264,361.5C 258.104,348.854 257.104,335.854 261,322.5C 276.238,292.121 286.238,260.121 291,226.5C 295.152,195.317 289.152,166.317 273,139.5C 264.461,127.121 253.628,117.454 240.5,110.5C 249.317,94.1836 261.984,81.6836 278.5,73C 324.386,50.7228 367.72,54.7228 408.5,85C 424.945,100.788 437.445,119.288 446,140.5C 452.072,155.881 457.238,171.548 461.5,187.5 Z"/></g>
<g><path style="opacity:1" fill="#51b7e5" d="M 240.5,110.5 C 253.628,117.454 264.461,127.121 273,139.5C 289.152,166.317 295.152,195.317 291,226.5C 286.238,260.121 276.238,292.121 261,322.5C 257.104,335.854 258.104,348.854 264,361.5C 276.8,381.387 285.3,402.721 289.5,425.5C 278.359,420.432 268.026,414.099 258.5,406.5C 254.568,401.393 250.401,396.393 246,391.5C 229.058,368.187 224.058,342.52 231,314.5C 240.68,293.805 248.68,272.471 255,250.5C 261.39,226.635 262.057,202.635 257,178.5C 252.321,162.003 243.154,148.67 229.5,138.5C 230.988,128.21 234.654,118.876 240.5,110.5 Z"/></g>
<g><path style="opacity:1" fill="#222324" d="M 393.5,113.5 C 398.635,112.426 402.468,114.093 405,118.5C 407.343,136.486 399.51,145.319 381.5,145C 371.565,142.091 366.732,135.591 367,125.5C 373.407,119.614 378.573,120.614 382.5,128.5C 386.745,130.57 389.412,129.403 390.5,125C 388.765,120.438 389.765,116.604 393.5,113.5 Z"/></g>
<g><path style="opacity:0.998" fill="#fea7c5" d="M 229.5,138.5 C 243.154,148.67 252.321,162.003 257,178.5C 262.057,202.635 261.39,226.635 255,250.5C 248.68,272.471 240.68,293.805 231,314.5C 224.058,342.52 229.058,368.187 246,391.5C 250.401,396.393 254.568,401.393 258.5,406.5C 250.375,415.739 240.375,422.239 228.5,426C 211.238,431.619 193.572,435.119 175.5,436.5C 169.67,435.666 163.67,435.666 157.5,436.5C 140.827,437.85 124.494,435.85 108.5,430.5C 103.888,427.361 98.8885,425.028 93.5,423.5C 80.2569,415.591 69.2569,405.258 60.5,392.5C 46.8723,370.452 38.7056,346.452 36,320.5C 32.9969,291.904 34.4969,263.57 40.5,235.5C 50.4949,190.689 75.4949,157.189 115.5,135C 154.119,117.36 192.119,118.526 229.5,138.5 Z"/></g>
<g><path style="opacity:1" fill="#222324" d="M 319.5,139.5 C 325.156,138.243 328.989,140.243 331,145.5C 332.852,162.98 325.019,171.48 307.5,171C 297.565,168.091 292.732,161.591 293,151.5C 299.679,145.504 304.846,146.67 308.5,155C 312.805,156.539 315.472,155.206 316.5,151C 314.765,146.438 315.765,142.604 319.5,139.5 Z"/></g>
<g><path style="opacity:1" fill="#fd8f03" d="M 388.5,178.5 C 378.025,185.546 366.358,188.88 353.5,188.5C 348.82,188.249 344.154,187.916 339.5,187.5C 341.536,161.632 354.869,152.799 379.5,161C 385.401,164.11 390.734,167.944 395.5,172.5C 393.761,175.243 391.427,177.243 388.5,178.5 Z"/></g>
<g><path style="opacity:1" fill="#242323" d="M 105.5,177.5 C 115.229,176.9 119.562,181.567 118.5,191.5C 119.293,191.931 120.127,192.265 121,192.5C 123.593,190.202 126.093,187.702 128.5,185C 139.436,184.653 142.269,189.487 137,199.5C 126.278,210.156 115.611,210.156 105,199.5C 100.19,191.908 100.357,184.575 105.5,177.5 Z"/></g>
<g><path style="opacity:1" fill="#e58102" d="M 388.5,178.5 C 391.656,194.015 385.656,204.182 370.5,209C 353.528,211.542 343.195,204.376 339.5,187.5C 344.154,187.916 348.82,188.249 353.5,188.5C 366.358,188.88 378.025,185.546 388.5,178.5 Z"/></g>
<g><path style="opacity:0.988" fill="#50b7e6" d="M 461.5,187.5 C 475.522,186.76 486.689,192.094 495,203.5C 503.795,217.724 509.295,233.058 511.5,249.5C 511.5,261.167 511.5,272.833 511.5,284.5C 507.466,321.071 491.466,351.238 463.5,375C 456.306,379.762 448.973,384.262 441.5,388.5C 447.248,378.886 452.415,368.886 457,358.5C 461.143,347.404 464.477,336.07 467,324.5C 474.44,278.425 472.606,232.759 461.5,187.5 Z"/></g>
<g><path style="opacity:1" fill="#232223" d="M 176.5,199.5 C 186.078,198.583 189.911,202.916 188,212.5C 189.466,214.325 191.299,214.825 193.5,214C 195.126,211.372 197.126,209.039 199.5,207C 211.177,207.311 213.677,212.478 207,222.5C 198.138,230.73 188.638,231.563 178.5,225C 171.393,216.893 170.727,208.393 176.5,199.5 Z"/></g>
<g><path style="opacity:1" fill="#fe8f07" d="M 166.5,245.5 C 156.522,246.532 146.522,246.699 136.5,246C 130.571,244.363 124.904,242.196 119.5,239.5C 117.063,237.567 114.729,235.4 112.5,233C 119.956,225.938 128.622,220.938 138.5,218C 152.75,217.217 161.916,223.717 166,237.5C 166.5,239.5 167,241.5 167.5,243.5C 167.457,244.416 167.124,245.083 166.5,245.5 Z"/></g>
<g><path style="opacity:0.986" fill="#e697b2" d="M 40.5,235.5 C 34.4969,263.57 32.9969,291.904 36,320.5C 38.7056,346.452 46.8723,370.452 60.5,392.5C 45.545,390.385 33.3784,383.385 24,371.5C 10.2024,352.267 2.03573,330.934 -0.5,307.5C -0.5,296.833 -0.5,286.167 -0.5,275.5C 1.2274,264.495 5.06074,254.162 11,244.5C 18.9388,235.354 28.7721,232.354 40.5,235.5 Z"/></g>
<g><path style="opacity:1" fill="#e68104" d="M 119.5,239.5 C 124.904,242.196 130.571,244.363 136.5,246C 146.522,246.699 156.522,246.532 166.5,245.5C 163.385,262.227 153.385,269.394 136.5,267C 123.218,262.55 117.551,253.383 119.5,239.5 Z"/></g>
<g><path style="opacity:1" fill="#e78202" d="M 93.5,423.5 C 98.8885,425.028 103.888,427.361 108.5,430.5C 106.297,436.442 104.297,442.442 102.5,448.5C 97.0124,447.672 92.0124,445.672 87.5,442.5C 88.7017,435.896 90.7017,429.562 93.5,423.5 Z"/></g>
<g><path style="opacity:1" fill="#e68203" d="M 396.5,425.5 C 399.105,431.983 401.105,438.65 402.5,445.5C 397.586,447.122 392.586,448.455 387.5,449.5C 385.186,443.571 382.853,437.571 380.5,431.5C 385.537,428.929 390.871,426.929 396.5,425.5 Z"/></g>
<g><path style="opacity:0.997" fill="#e68201" d="M 306.5,431.5 C 312.737,433.309 319.07,434.643 325.5,435.5C 326.167,435.5 326.5,435.833 326.5,436.5C 328.244,442.065 329.577,447.732 330.5,453.5C 330.5,454.5 330.5,455.5 330.5,456.5C 325.07,456.483 319.737,455.817 314.5,454.5C 312.259,446.78 309.592,439.113 306.5,431.5 Z"/></g>
<g><path style="opacity:1" fill="#e78204" d="M 175.5,436.5 C 172.764,443.043 170.43,449.71 168.5,456.5C 162.974,456.821 157.64,456.488 152.5,455.5C 153.389,448.941 155.056,442.608 157.5,436.5C 163.67,435.666 169.67,435.666 175.5,436.5 Z"/></g>
<g><path style="opacity:0.959" fill="#fe8f00" d="M 87.5,442.5 C 92.0124,445.672 97.0124,447.672 102.5,448.5C 101.448,453.312 100.448,458.145 99.5,463C 107.154,469.316 113.321,476.816 118,485.5C 119.393,497.447 114.726,500.781 104,495.5C 98.7754,482.217 96.442,482.55 97,496.5C 92,501.833 87,501.833 82,496.5C 81.6667,493.5 81.3333,490.5 81,487.5C 78.5,490.667 76,493.833 73.5,497C 65.0393,499.543 60.8726,496.376 61,487.5C 66.5301,477.633 73.8635,469.3 83,462.5C 83.9479,455.578 85.4479,448.912 87.5,442.5 Z"/></g>
<g><path style="opacity:0.963" fill="#ff8f00" d="M 402.5,445.5 C 404.866,452.628 406.866,459.961 408.5,467.5C 416.712,473.914 423.546,481.581 429,490.5C 430.285,500.55 426.119,504.05 416.5,501C 414.697,497.897 412.53,495.063 410,492.5C 410.363,502.141 405.863,505.974 396.5,504C 394.951,502.786 393.785,501.286 393,499.5C 392.667,496.167 392.333,492.833 392,489.5C 389.469,493.354 386.969,497.187 384.5,501C 380.372,503.11 376.539,502.61 373,499.5C 370.934,494.215 371.601,489.215 375,484.5C 379.091,478.32 384.091,472.987 390,468.5C 389.888,462.099 389.055,455.766 387.5,449.5C 392.586,448.455 397.586,447.122 402.5,445.5 Z"/></g>
<g><path style="opacity:0.963" fill="#fe8f00" d="M 330.5,453.5 C 331.763,458.016 332.929,462.683 334,467.5C 342.419,473.917 349.419,481.584 355,490.5C 356.285,500.55 352.119,504.05 342.5,501C 340.12,497.742 337.62,494.576 335,491.5C 336.654,501.762 332.487,505.929 322.5,504C 321.667,503.167 320.833,502.333 320,501.5C 318.81,497.619 318.143,493.619 318,489.5C 315.376,493.248 312.876,497.081 310.5,501C 300.866,504.033 296.699,500.533 298,490.5C 302.108,481.618 308.108,474.284 316,468.5C 315.966,463.814 315.466,459.148 314.5,454.5C 319.737,455.817 325.07,456.483 330.5,456.5C 330.5,455.5 330.5,454.5 330.5,453.5 Z"/></g>
<g><path style="opacity:0.96" fill="#fe8f00" d="M 152.5,455.5 C 157.64,456.488 162.974,456.821 168.5,456.5C 168.206,460.1 167.54,463.6 166.5,467C 172.033,472.198 177.2,477.698 182,483.5C 183.913,486.826 185.413,490.326 186.5,494C 183.919,502.628 178.919,504.461 171.5,499.5C 170.08,495.655 167.913,492.322 165,489.5C 164.87,493.951 164.204,498.284 163,502.5C 152.558,506.755 147.558,503.088 148,491.5C 145.861,494.939 143.361,498.106 140.5,501C 133.558,503.694 129.225,501.361 127.5,494C 132.371,482.785 139.871,473.618 150,466.5C 150.633,462.653 151.467,458.986 152.5,455.5 Z"/></g>
</svg>
